<?xml version="1.0" encoding="UTF-8" standalone="no"?><!DOCTYPE svg PUBLIC "-//W3C//DTD SVG 1.1//EN" "http://www.w3.org/Graphics/SVG/1.1/DTD/svg11.dtd"><svg width="100%" height="100%" viewBox="0 0 266 266" version="1.1" xmlns="http://www.w3.org/2000/svg" xmlns:xlink="http://www.w3.org/1999/xlink" xml:space="preserve" xmlns:serif="http://www.serif.com/" style="fill-rule:evenodd;clip-rule:evenodd;stroke-linejoin:round;stroke-miterlimit:2;"><g><path d="M242.128,207.387c0,0 -0.576,0.842 -0.868,1.26c-23.939,34.302 -63.698,56.762 -108.661,56.762c-45.192,-0 -85.126,-22.688 -109.024,-57.284c-0.161,-0.233 -0.48,-0.7 -0.48,-0.7c-0,-0 33.032,-19.165 41.604,-24.578l25.716,-14.889c6.768,9.475 23.912,18.949 33.386,17.596l0,25.264c0,0 34.739,-28.423 50.669,-42.46c0.127,-0.111 0.312,-0.4 0.312,-0.4l67.346,39.429Z" style="fill:#9e9c9b;fill-opacity:0.3;"/><path d="M197.962,157.177c-0,0 0.206,-0.563 0.307,-0.846c2.597,-7.297 4.011,-15.154 4.011,-23.338c-0,-34.421 -25.013,-63.047 -57.839,-68.676c-0.228,-0.039 -0.686,-0.114 -0.686,-0.114l0.348,-29.788l-0.242,-33.364c-0,0 0.928,0.081 1.392,0.125c67.155,6.379 119.761,63.003 119.761,131.817c-0,19.702 -4.312,38.404 -12.043,55.214c-0.111,0.241 -0.334,0.722 -0.334,0.722l-54.675,-31.752Z" style="fill:#9e9c9b;fill-opacity:0.3;"/><g><path d="M28.177,179.973l-15.62,8.949c0,-0 -0.299,-0.645 -0.447,-0.968c-7.658,-16.744 -11.927,-35.358 -11.927,-54.961c0,-69.03 52.937,-125.793 120.395,-131.875c0.749,-0.068 2.251,-0.184 2.251,-0.184c0,-0 0.07,12.728 -0.126,63.077c-0,0 -1.763,0.269 -2.637,0.428c-32.485,5.909 -57.148,34.374 -57.148,68.554c-0,8.453 1.508,16.555 4.27,24.054c0.062,0.169 0.188,0.505 0.188,0.505l-39.221,22.588l0.022,-0.167Z" style="fill:#d2d62a;"/><path d="M122.899,125.098l-0,-42.86c-28.874,5.414 -48.274,33.837 -40.153,66.32l40.153,-23.46Z" style="fill:#d2d62a;"/></g></g></svg>