<?xml version="1.0" encoding="UTF-8" standalone="no"?>
<!DOCTYPE svg PUBLIC "-//W3C//DTD SVG 1.1//EN" "http://www.w3.org/Graphics/SVG/1.1/DTD/svg11.dtd">
<svg width="100%" height="100%" viewBox="0 0 992 532" version="1.1" xmlns="http://www.w3.org/2000/svg" xmlns:xlink="http://www.w3.org/1999/xlink" xml:space="preserve" xmlns:serif="http://www.serif.com/" style="fill-rule:evenodd;clip-rule:evenodd;stroke-linejoin:round;stroke-miterlimit:2;">
    <g transform="matrix(1,0,0,1,-15.5701,-35.7002)">
        <g id="ADK-logo-PDS" serif:id="ADK logo PDS" transform="matrix(0.906881,0,0,0.906881,-240.17,-1727.08)">
            <g transform="matrix(1,0,0,1,-3026,0)">
                <path d="M3844.27,2401.39C3844.27,2401.39 3843,2403.26 3842.35,2404.19C3789.29,2480.22 3701.16,2530 3601.5,2530C3501.33,2530 3412.82,2479.71 3359.85,2403.03C3359.49,2402.51 3358.78,2401.48 3358.78,2401.48C3358.78,2401.48 3432,2359 3451,2347L3508,2314C3523,2335 3561,2356 3582,2353L3582,2409C3582,2409 3659,2346 3694.31,2314.89C3694.59,2314.64 3695,2314 3695,2314L3844.27,2401.39Z" style="fill:rgb(158,156,155);fill-opacity:0.3;"/>
            </g>
            <g transform="matrix(1,0,0,1,-3026,0)">
                <path d="M3746.38,2290.1C3746.38,2290.1 3746.84,2288.86 3747.06,2288.23C3752.82,2272.05 3755.95,2254.64 3755.95,2236.5C3755.95,2160.2 3700.51,2096.76 3627.75,2084.28C3627.24,2084.19 3626.23,2084.02 3626.23,2084.02L3627,2018L3626.46,1944.05C3626.46,1944.05 3628.52,1944.23 3629.55,1944.33C3778.4,1958.46 3895,2083.97 3895,2236.5C3895,2280.17 3885.44,2321.62 3868.31,2358.88C3868.06,2359.41 3867.57,2360.48 3867.57,2360.48L3746.38,2290.1Z" style="fill:rgb(158,156,155);fill-opacity:0.3;"/>
            </g>
            <g>
                <g transform="matrix(1,0,0,1,-3026,0)">
                    <path d="M3370.05,2340.63L3335.43,2360.47C3335.43,2360.47 3334.76,2359.04 3334.44,2358.32C3317.46,2321.21 3308,2279.95 3308,2236.5C3308,2083.49 3425.34,1957.68 3574.86,1944.2C3576.51,1944.05 3579.85,1943.79 3579.85,1943.79C3579.85,1943.79 3580,1972 3579.57,2083.6C3579.57,2083.6 3575.66,2084.2 3573.72,2084.55C3501.72,2097.65 3447.05,2160.74 3447.05,2236.5C3447.05,2255.23 3450.39,2273.19 3456.52,2289.82C3456.65,2290.19 3456.93,2290.93 3456.93,2290.93L3370,2341L3370.05,2340.63Z" style="fill:rgb(210,214,42);"/>
                </g>
                <g transform="matrix(1,0,0,1,-3026,0)">
                    <path d="M3580,2219L3580,2124C3516,2136 3473,2199 3491,2271L3580,2219Z" style="fill:rgb(210,214,42);"/>
                </g>
            </g>
            <g transform="matrix(1.63813,0,0,1.63813,-5002.18,-9114.55)">
                <g transform="matrix(84.0651,0,0,84.0651,3633.24,6822)">
                    <path d="M0.326,-0.502C0.262,-0.502 0.206,-0.479 0.17,-0.432L0.17,-0.493L0.084,-0.493L0.084,0.204L0.17,0.204L0.17,-0.062C0.203,-0.018 0.26,0.009 0.326,0.009C0.463,0.009 0.542,-0.095 0.542,-0.247C0.542,-0.399 0.462,-0.502 0.326,-0.502ZM0.31,-0.067C0.212,-0.067 0.163,-0.144 0.163,-0.247C0.163,-0.354 0.215,-0.427 0.31,-0.427C0.403,-0.427 0.456,-0.357 0.456,-0.247C0.456,-0.14 0.406,-0.067 0.31,-0.067Z" style="fill:rgb(13,10,5);fill-rule:nonzero;"/>
                </g>
                <g transform="matrix(84.0651,0,0,84.0651,3682.59,6822)">
                    <path d="M0.312,-0.502C0.26,-0.502 0.201,-0.479 0.17,-0.416L0.17,-0.493L0.084,-0.493L0.084,-0L0.17,-0L0.17,-0.266C0.17,-0.368 0.219,-0.421 0.294,-0.421C0.316,-0.421 0.337,-0.416 0.358,-0.406L0.4,-0.478C0.371,-0.495 0.343,-0.502 0.312,-0.502Z" style="fill:rgb(13,10,5);fill-rule:nonzero;"/>
                </g>
                <g transform="matrix(84.0651,0,0,84.0651,3716.47,6822)">
                    <path d="M0.262,-0.502C0.176,-0.502 0.109,-0.469 0.054,-0.399L0.116,-0.347C0.155,-0.399 0.202,-0.426 0.26,-0.426C0.335,-0.426 0.377,-0.384 0.377,-0.308L0.377,-0.288L0.268,-0.288C0.185,-0.288 0.136,-0.28 0.099,-0.26C0.059,-0.238 0.037,-0.198 0.037,-0.146C0.037,-0.051 0.104,0.009 0.21,0.009C0.284,0.009 0.343,-0.021 0.378,-0.074L0.384,-0L0.463,-0L0.463,-0.308C0.463,-0.43 0.388,-0.502 0.262,-0.502ZM0.23,-0.063C0.164,-0.063 0.123,-0.094 0.123,-0.142C0.123,-0.167 0.132,-0.186 0.148,-0.199C0.169,-0.215 0.203,-0.221 0.278,-0.221L0.377,-0.221L0.377,-0.216C0.377,-0.125 0.317,-0.063 0.23,-0.063Z" style="fill:rgb(13,10,5);fill-rule:nonzero;"/>
                </g>
                <g transform="matrix(84.0651,0,0,84.0651,3761.27,6822)">
                    <path d="M0.26,-0.065C0.192,-0.075 0.134,-0.086 0.134,-0.132C0.134,-0.15 0.143,-0.164 0.161,-0.174C0.189,-0.159 0.223,-0.151 0.26,-0.151C0.365,-0.151 0.451,-0.219 0.451,-0.323C0.451,-0.357 0.442,-0.388 0.426,-0.414L0.494,-0.47L0.449,-0.525L0.379,-0.465C0.346,-0.488 0.305,-0.502 0.258,-0.502C0.151,-0.502 0.065,-0.43 0.065,-0.327C0.065,-0.284 0.08,-0.245 0.107,-0.215C0.074,-0.191 0.056,-0.161 0.056,-0.119C0.056,-0.069 0.082,-0.04 0.119,-0.022L0.041,0.037C0.04,0.043 0.039,0.049 0.039,0.059C0.039,0.159 0.123,0.213 0.263,0.213C0.39,0.213 0.479,0.169 0.479,0.073C0.479,-0.038 0.359,-0.051 0.26,-0.065ZM0.259,-0.43C0.324,-0.43 0.365,-0.387 0.365,-0.325C0.365,-0.266 0.326,-0.221 0.259,-0.221C0.191,-0.221 0.151,-0.267 0.151,-0.325C0.151,-0.387 0.196,-0.43 0.259,-0.43ZM0.267,0.144C0.192,0.144 0.124,0.125 0.124,0.064C0.124,0.062 0.124,0.06 0.125,0.056L0.184,-0.001C0.203,0.003 0.223,0.006 0.242,0.009C0.32,0.021 0.393,0.028 0.393,0.081C0.393,0.124 0.342,0.144 0.267,0.144Z" style="fill:rgb(13,10,5);fill-rule:nonzero;"/>
                </g>
                <g transform="matrix(84.0651,0,0,84.0651,3804.9,6822)">
                    <path d="M0.396,-0.493L0.396,-0.279C0.396,-0.165 0.363,-0.067 0.26,-0.067C0.167,-0.067 0.158,-0.146 0.158,-0.21L0.158,-0.493L0.072,-0.493L0.072,-0.189C0.072,-0.073 0.122,0.009 0.238,0.009C0.3,0.009 0.361,-0.015 0.396,-0.067L0.396,-0L0.482,-0L0.482,-0.493L0.396,-0.493Z" style="fill:rgb(13,10,5);fill-rule:nonzero;"/>
                </g>
                <g transform="matrix(84.0651,0,0,84.0651,3852.49,6822)">
                    <path d="M0.486,-0.265C0.486,-0.385 0.419,-0.502 0.268,-0.502C0.118,-0.502 0.044,-0.38 0.044,-0.244C0.044,-0.107 0.119,0.009 0.276,0.009C0.354,0.009 0.414,-0.016 0.47,-0.076L0.411,-0.129C0.369,-0.084 0.327,-0.07 0.277,-0.07C0.186,-0.07 0.133,-0.127 0.13,-0.221L0.483,-0.221C0.485,-0.234 0.486,-0.251 0.486,-0.265ZM0.13,-0.291C0.136,-0.365 0.183,-0.43 0.267,-0.43C0.35,-0.43 0.4,-0.376 0.403,-0.3C0.403,-0.296 0.403,-0.293 0.404,-0.291L0.13,-0.291Z" style="fill:rgb(13,10,5);fill-rule:nonzero;"/>
                </g>
                <g transform="matrix(84.0651,0,0,84.0651,3633.24,6906.07)">
                    <path d="M0.417,-0.697L0.417,-0.431C0.383,-0.476 0.326,-0.502 0.261,-0.502C0.129,-0.502 0.045,-0.403 0.045,-0.247C0.045,-0.1 0.12,0.009 0.261,0.009C0.326,0.009 0.382,-0.015 0.417,-0.061L0.417,-0L0.503,-0L0.503,-0.697L0.417,-0.697ZM0.277,-0.069C0.18,-0.069 0.131,-0.142 0.131,-0.247C0.131,-0.355 0.184,-0.425 0.277,-0.425C0.372,-0.425 0.424,-0.352 0.424,-0.247C0.424,-0.145 0.375,-0.069 0.277,-0.069Z" style="fill:rgb(13,10,5);fill-rule:nonzero;"/>
                </g>
                <g transform="matrix(84.0651,0,0,84.0651,3682.59,6906.07)">
                    <path d="M0.486,-0.265C0.486,-0.385 0.419,-0.502 0.268,-0.502C0.118,-0.502 0.044,-0.38 0.044,-0.244C0.044,-0.107 0.119,0.009 0.276,0.009C0.354,0.009 0.414,-0.016 0.47,-0.076L0.411,-0.129C0.369,-0.084 0.327,-0.07 0.277,-0.07C0.186,-0.07 0.133,-0.127 0.13,-0.221L0.483,-0.221C0.485,-0.234 0.486,-0.251 0.486,-0.265ZM0.13,-0.291C0.136,-0.365 0.183,-0.43 0.267,-0.43C0.35,-0.43 0.4,-0.376 0.403,-0.3C0.403,-0.296 0.403,-0.293 0.404,-0.291L0.13,-0.291Z" style="fill:rgb(13,10,5);fill-rule:nonzero;"/>
                </g>
                <g transform="matrix(84.0651,0,0,84.0651,3726.98,6906.07)">
                    <path d="M0.326,-0.502C0.261,-0.502 0.204,-0.476 0.17,-0.431L0.17,-0.697L0.084,-0.697L0.084,-0L0.17,-0L0.17,-0.061C0.205,-0.015 0.261,0.009 0.326,0.009C0.467,0.009 0.542,-0.1 0.542,-0.247C0.542,-0.403 0.458,-0.502 0.326,-0.502ZM0.31,-0.069C0.212,-0.069 0.163,-0.145 0.163,-0.247C0.163,-0.352 0.215,-0.425 0.31,-0.425C0.403,-0.425 0.456,-0.355 0.456,-0.247C0.456,-0.142 0.407,-0.069 0.31,-0.069Z" style="fill:rgb(13,10,5);fill-rule:nonzero;"/>
                </g>
                <g transform="matrix(84.0651,0,0,84.0651,3776.32,6906.07)">
                    <path d="M0.262,-0.502C0.176,-0.502 0.109,-0.469 0.054,-0.399L0.116,-0.347C0.155,-0.399 0.202,-0.426 0.26,-0.426C0.335,-0.426 0.377,-0.384 0.377,-0.308L0.377,-0.288L0.268,-0.288C0.185,-0.288 0.136,-0.28 0.099,-0.26C0.059,-0.238 0.037,-0.198 0.037,-0.146C0.037,-0.051 0.104,0.009 0.21,0.009C0.284,0.009 0.343,-0.021 0.378,-0.074L0.384,-0L0.463,-0L0.463,-0.308C0.463,-0.43 0.388,-0.502 0.262,-0.502ZM0.23,-0.063C0.164,-0.063 0.123,-0.094 0.123,-0.142C0.123,-0.167 0.132,-0.186 0.148,-0.199C0.169,-0.215 0.203,-0.221 0.278,-0.221L0.377,-0.221L0.377,-0.216C0.377,-0.125 0.317,-0.063 0.23,-0.063Z" style="fill:rgb(13,10,5);fill-rule:nonzero;"/>
                </g>
                <g transform="matrix(84.0651,0,0,84.0651,3821.13,6906.07)">
                    <path d="M0.308,-0.423L0.308,-0.493L0.187,-0.493L0.187,-0.674L0.101,-0.61L0.101,-0.493L0.02,-0.493L0.02,-0.423L0.101,-0.423L0.101,-0.123C0.101,-0.03 0.157,0.009 0.228,0.009C0.254,0.009 0.281,0.004 0.308,-0.005L0.308,-0.078C0.286,-0.071 0.266,-0.067 0.249,-0.067C0.21,-0.067 0.187,-0.087 0.187,-0.132L0.187,-0.423L0.308,-0.423Z" style="fill:rgb(13,10,5);fill-rule:nonzero;"/>
                </g>
                <g transform="matrix(84.0651,0,0,84.0651,3850.22,6906.07)">
                    <path d="M0.486,-0.265C0.486,-0.385 0.419,-0.502 0.268,-0.502C0.118,-0.502 0.044,-0.38 0.044,-0.244C0.044,-0.107 0.119,0.009 0.276,0.009C0.354,0.009 0.414,-0.016 0.47,-0.076L0.411,-0.129C0.369,-0.084 0.327,-0.07 0.277,-0.07C0.186,-0.07 0.133,-0.127 0.13,-0.221L0.483,-0.221C0.485,-0.234 0.486,-0.251 0.486,-0.265ZM0.13,-0.291C0.136,-0.365 0.183,-0.43 0.267,-0.43C0.35,-0.43 0.4,-0.376 0.403,-0.3C0.403,-0.296 0.403,-0.293 0.404,-0.291L0.13,-0.291Z" style="fill:rgb(13,10,5);fill-rule:nonzero;"/>
                </g>
                <g transform="matrix(84.0651,0,0,84.0651,3633.24,6990.13)">
                    <path d="M0.235,0.009C0.329,0.009 0.417,-0.041 0.417,-0.146C0.417,-0.331 0.141,-0.267 0.141,-0.37C0.141,-0.406 0.175,-0.429 0.229,-0.429C0.287,-0.429 0.322,-0.4 0.344,-0.36L0.412,-0.397C0.377,-0.466 0.312,-0.502 0.231,-0.502C0.134,-0.502 0.058,-0.45 0.058,-0.361C0.058,-0.183 0.332,-0.256 0.332,-0.141C0.332,-0.098 0.296,-0.065 0.232,-0.065C0.159,-0.065 0.118,-0.109 0.102,-0.155L0.031,-0.123C0.057,-0.046 0.136,0.009 0.235,0.009Z" style="fill:rgb(13,10,5);fill-rule:nonzero;"/>
                </g>
                <g transform="matrix(84.0651,0,0,84.0651,3671.91,6990.13)">
                    <path d="M0.326,-0.502C0.262,-0.502 0.206,-0.479 0.17,-0.432L0.17,-0.493L0.084,-0.493L0.084,0.204L0.17,0.204L0.17,-0.062C0.203,-0.018 0.26,0.009 0.326,0.009C0.463,0.009 0.542,-0.095 0.542,-0.247C0.542,-0.399 0.462,-0.502 0.326,-0.502ZM0.31,-0.067C0.212,-0.067 0.163,-0.144 0.163,-0.247C0.163,-0.354 0.215,-0.427 0.31,-0.427C0.403,-0.427 0.456,-0.357 0.456,-0.247C0.456,-0.14 0.406,-0.067 0.31,-0.067Z" style="fill:rgb(13,10,5);fill-rule:nonzero;"/>
                </g>
                <g transform="matrix(84.0651,0,0,84.0651,3721.26,6990.13)">
                    <path d="M0.312,-0.502C0.26,-0.502 0.201,-0.479 0.17,-0.416L0.17,-0.493L0.084,-0.493L0.084,-0L0.17,-0L0.17,-0.266C0.17,-0.368 0.219,-0.421 0.294,-0.421C0.316,-0.421 0.337,-0.416 0.358,-0.406L0.4,-0.478C0.371,-0.495 0.343,-0.502 0.312,-0.502Z" style="fill:rgb(13,10,5);fill-rule:nonzero;"/>
                </g>
                <g transform="matrix(84.0651,0,0,84.0651,3755.14,6990.13)">
                    <path d="M0.079,-0.592L0.175,-0.592L0.175,-0.697L0.079,-0.697L0.079,-0.592ZM0.084,-0L0.17,-0L0.17,-0.493L0.084,-0.493L0.084,-0Z" style="fill:rgb(13,10,5);fill-rule:nonzero;"/>
                </g>
                <g transform="matrix(84.0651,0,0,84.0651,3776.49,6990.13)">
                    <path d="M0.328,-0.502C0.261,-0.502 0.203,-0.474 0.17,-0.426L0.17,-0.493L0.084,-0.493L0.084,-0L0.17,-0L0.17,-0.213C0.17,-0.335 0.206,-0.426 0.305,-0.426C0.385,-0.426 0.408,-0.368 0.408,-0.286L0.408,-0L0.494,-0L0.494,-0.307C0.494,-0.434 0.436,-0.502 0.328,-0.502Z" style="fill:rgb(13,10,5);fill-rule:nonzero;"/>
                </g>
                <g transform="matrix(84.0651,0,0,84.0651,3824.07,6990.13)">
                    <path d="M0.26,-0.065C0.192,-0.075 0.134,-0.086 0.134,-0.132C0.134,-0.15 0.143,-0.164 0.161,-0.174C0.189,-0.159 0.223,-0.151 0.26,-0.151C0.365,-0.151 0.451,-0.219 0.451,-0.323C0.451,-0.357 0.442,-0.388 0.426,-0.414L0.494,-0.47L0.449,-0.525L0.379,-0.465C0.346,-0.488 0.305,-0.502 0.258,-0.502C0.151,-0.502 0.065,-0.43 0.065,-0.327C0.065,-0.284 0.08,-0.245 0.107,-0.215C0.074,-0.191 0.056,-0.161 0.056,-0.119C0.056,-0.069 0.082,-0.04 0.119,-0.022L0.041,0.037C0.04,0.043 0.039,0.049 0.039,0.059C0.039,0.159 0.123,0.213 0.263,0.213C0.39,0.213 0.479,0.169 0.479,0.073C0.479,-0.038 0.359,-0.051 0.26,-0.065ZM0.259,-0.43C0.324,-0.43 0.365,-0.387 0.365,-0.325C0.365,-0.266 0.326,-0.221 0.259,-0.221C0.191,-0.221 0.151,-0.267 0.151,-0.325C0.151,-0.387 0.196,-0.43 0.259,-0.43ZM0.267,0.144C0.192,0.144 0.124,0.125 0.124,0.064C0.124,0.062 0.124,0.06 0.125,0.056L0.184,-0.001C0.203,0.003 0.223,0.006 0.242,0.009C0.32,0.021 0.393,0.028 0.393,0.081C0.393,0.124 0.342,0.144 0.267,0.144Z" style="fill:rgb(13,10,5);fill-rule:nonzero;"/>
                </g>
            </g>
        </g>
    </g>
</svg>
